<svg width="16" height="16" viewBox="0 0 16 16" fill="none" xmlns="http://www.w3.org/2000/svg">
<path fill-rule="evenodd" clip-rule="evenodd" d="M4.84588 3.10568C6.94524 2.92319 9.05648 2.92319 11.1558 3.10568L12.1627 3.1932C13.126 3.27695 13.9065 4.01004 14.0503 4.9663C14.3527 6.97745 14.3527 9.02251 14.0503 11.0336C14.0238 11.2096 13.9758 11.378 13.9091 11.5361C13.8649 11.641 13.7283 11.6569 13.6518 11.5727L10.7042 8.33031C10.571 8.18381 10.3639 8.1297 10.1761 8.1923L8.48885 8.75471L6.04122 6.00113C5.94974 5.89821 5.81985 5.83757 5.68221 5.83353C5.54456 5.82948 5.41134 5.88239 5.31396 5.97976L2.03788 9.25584C1.93706 9.35667 1.7651 9.29249 1.75706 9.15013C1.67823 7.75421 1.74302 6.3522 1.95143 4.9663C2.09523 4.01004 2.87568 3.27695 3.83905 3.1932L4.84588 3.10568ZM9.33419 5.99998C9.33419 5.44769 9.7819 4.99998 10.3342 4.99998C10.8865 4.99998 11.3342 5.44769 11.3342 5.99998C11.3342 6.55226 10.8865 6.99998 10.3342 6.99998C9.7819 6.99998 9.33419 6.55226 9.33419 5.99998Z" fill="#006156"/>
<path d="M1.97508 10.7329C1.93817 10.7698 1.92065 10.8218 1.928 10.8735C1.93559 10.9269 1.94341 10.9803 1.95143 11.0336C2.09523 11.9899 2.87568 12.723 3.83905 12.8068L4.84588 12.8943C6.94524 13.0768 9.05648 13.0768 11.1558 12.8943L12.1627 12.8068C12.4458 12.7821 12.713 12.7015 12.953 12.5755C13.044 12.5278 13.0593 12.4076 12.9902 12.3316L10.2563 9.32432C10.2119 9.27549 10.1429 9.25745 10.0803 9.27832L8.4923 9.80765C8.30255 9.8709 8.09336 9.81499 7.96048 9.66549L5.76354 7.19394C5.69983 7.12227 5.58893 7.11901 5.52112 7.18682L1.97508 10.7329Z" fill="#006156"/>
</svg>
